<svg width="67" height="67" viewBox="0 0 67 67" fill="none" xmlns="http://www.w3.org/2000/svg">
<path d="M11.1667 5.58325V55.8332H8.375V61.4166H19.5417V55.8332H16.75V41.8749H53.0417C53.7821 41.8749 54.4921 41.5808 55.0157 41.0573C55.5392 40.5337 55.8333 39.8236 55.8333 39.0833V11.1666C55.8333 10.4262 55.5392 9.71612 55.0157 9.19258C54.4921 8.66904 53.7821 8.37492 53.0417 8.37492H16.75V5.58325H11.1667ZM22.3333 13.9583V19.5416H27.9167V13.9583H33.5V19.5416H39.0833V13.9583H44.6667V19.5416H50.25V25.1249H44.6667V30.7083H50.25V36.2916H44.6667V30.7083H39.0833V36.2916H33.5V30.7083H27.9167V36.2916H22.3333V30.7083H16.75V25.1249H22.3333V19.5416H16.75V13.9583H22.3333Z" fill="white"/>
<path d="M22.3335 25.1251H27.9168V30.7084H22.3335V25.1251ZM33.5002 25.1251H39.0835V30.7084H33.5002V25.1251ZM27.9168 19.5417H33.5002V25.1251H27.9168V19.5417ZM39.0835 19.5417H44.6668V25.1251H39.0835V19.5417Z" fill="white"/>
</svg>
