<svg width="31" height="24" viewBox="0 0 31 24" fill="none" xmlns="http://www.w3.org/2000/svg">
<g clip-path="url(#clip0_17_57)">
<path fill-rule="evenodd" clip-rule="evenodd" d="M3.652 0.76672C3.99101 0.504653 4.3981 0.301358 4.84627 0.170305C5.29444 0.0392528 5.77348 -0.0165637 6.25162 0.00655466C6.72977 0.029673 7.19611 0.131198 7.61974 0.304402C8.04337 0.477607 8.41461 0.718535 8.70888 1.01122L12.1867 4.47022C12.8241 5.10472 13.0489 5.93122 12.797 6.71122L11.7372 9.99622C11.6828 10.1664 11.6859 10.3445 11.7463 10.5135C11.8067 10.6824 11.9224 10.8364 12.0821 10.9607L16.8425 14.6462C17.0032 14.7701 17.2025 14.8598 17.4211 14.9065C17.6397 14.9533 17.8702 14.9556 18.0903 14.9132L22.3314 14.0927C22.8287 13.997 23.3475 13.9898 23.8488 14.0717C24.3502 14.1535 24.821 14.3223 25.2261 14.5652L29.6939 17.2562C31.3001 18.2237 31.4474 20.0612 30.0098 21.1727L28.0064 22.7237C26.5726 23.8337 24.4298 24.3212 22.4322 23.7767C17.3185 22.3856 12.676 20.1194 8.85031 17.1467C5.01091 14.1853 2.0837 10.5917 0.286564 6.63322C-0.414811 5.08822 0.214876 3.42772 1.64863 2.31772L3.652 0.76672Z" fill="#969E4D"/>
</g>
<defs>
<clipPath id="clip0_17_57">
<rect width="31" height="24" fill="white"/>
</clipPath>
</defs>
</svg>
