<?xml version="1.0" encoding="UTF-8"?>
<svg id="Layer_1" data-name="Layer 1" xmlns="http://www.w3.org/2000/svg" version="1.1" viewBox="0 0 1813.2 615">
  <defs>
    <style>
      .cls-1 {
        fill: #969e4d;
        fill-opacity: .2;
        stroke-width: 0px;
      }
    </style>
  </defs>
  <path class="cls-1" d="M874.1,41.8c-150.5,59-315.3,126.9-492.8,141.8-84.3,9.1-182.5,2.4-264-12.4-39.8-4.9-88.5-21.5-115.1-16.8-9.3,7.1,13.9,23.9,19.1,30.8,48.1,46.2,141.3,119.6,278.3,155.9,262,72.4,446.7-6.9,680.3-94.3,104-34.7,219.9-63.7,331-75,97.4-11.2,203.4-2.4,258.8,2.8,16.1.4,60,8.3,45.1-7.7-59.4-44.2-125.6-77.9-203.2-105.7-239.2-85.8-381.9-71-535.4-19.7l-2,.6-.2-.4Z"/>
  <path class="cls-1" d="M1072.2,287.4c-150.5,59-315.3,126.9-492.8,141.8-84.3,9.1-182.5,2.4-264-12.4-39.8-4.9-88.5-21.5-115.1-16.8-9.3,7.1,13.9,23.9,19.1,30.8,48.1,46.2,141.3,119.6,278.3,155.9,262,72.4,446.7-6.9,680.3-94.3,104-34.7,219.9-63.7,331-75,97.4-11.2,203.4-2.4,258.8,2.8,16.1.4,60,8.3,45.1-7.7-59.4-44.2-125.6-77.9-203.2-105.7-239.2-85.8-381.9-71-535.4-19.7l-2,.6-.2-.4Z"/>
</svg>