<?xml version="1.0" encoding="UTF-8"?>
<svg id="Layer_1" data-name="Layer 1" xmlns="http://www.w3.org/2000/svg" xmlns:xlink="http://www.w3.org/1999/xlink" viewBox="0 0 175 55.12">
  <defs>
    <clipPath id="clippath">
      <rect width="175" height="55.12" style="fill: none; stroke-width: 0px;"/>
    </clipPath>
  </defs>
  <g style="clip-path: url(#clippath);">
    <g>
      <path d="M14.12,31.23c-5.59.97-8.38,1.42-13.98,1.42V1.72c0-.36.3-.66.92-.88.61-.23,1.33-.4,2.17-.51.84-.11,1.62-.2,2.36-.24.74-.05,1.25-.08,1.54-.08h18.79c.29,0,.8.02,1.54.08.74.05,1.53.13,2.36.24.84.11,1.56.29,2.17.51.61.23.92.52.92.88v19.64c0,.36-.3.66-.92.88-.61.23-1.33.4-2.17.51-.84.11-1.62.2-2.36.25-.74.05-1.25.08-1.54.08h-11.8v8.16h0ZM14.12,19.64h4.82V3.44h-4.82v16.21Z" style="fill: #fff; stroke-width: 0px;"/>
      <path d="M36.71,11.44v-3.34h23.61c.26,0,.75.02,1.47.08.73.05,1.5.13,2.31.24.82.11,1.52.28,2.1.49.58.21.87.5.87.86v19.49c0,.26-.29.44-.87.54-.58.1-1.27.12-2.1.08-.82-.05-1.59-.12-2.31-.21-.73-.09-1.22-.17-1.47-.21-7.11-1.37-10.67-2.15-17.78-2.24-.26,0-.75-.03-1.47-.07-.73-.04-1.5-.08-2.31-.13-.82-.05-1.52-.13-2.1-.22-.58-.09-.87-.21-.87-.34v-8.98c0-.36.29-.65.87-.86.58-.21,1.27-.38,2.1-.49.82-.11,1.59-.2,2.31-.25.73-.05,1.22-.08,1.47-.08h4.29c.36,0,.86.02,1.52.05.66.03,1.36.11,2.1.22.74.11,1.4.27,1.98.47.58.2.95.45,1.11.74.03.03.05.1.05.2v-6.04h-16.88ZM53.58,19.15h-4.29v7.02c1.71.13,2.57.2,4.29.37v-7.39Z" style="fill: #fff; stroke-width: 0px;"/>
      <path d="M83.3,32.65c-5.39-.04-8.09-.47-13.49-1.4V8.1h24.09c.26,0,.75.02,1.47.08.72.05,1.5.13,2.31.24.82.11,1.52.28,2.1.49.58.21.87.5.87.86v20.92c-5.4,1.02-8.09,1.53-13.5,1.86V11.44h-3.85v21.21h0Z" style="fill: #fff; stroke-width: 0px;"/>
      <path d="M103.54,8.1h13.49v19.69c-5.39.68-8.09,1.3-13.49,2.35V8.1ZM117.08,5.65h-13.49V1.67c0-.36.29-.65.87-.86.58-.21,1.28-.38,2.1-.49.82-.11,1.59-.2,2.31-.24.73-.05,1.22-.08,1.47-.08h6.74v5.65Z" style="fill: #fff; stroke-width: 0px;"/>
      <path d="M133.46,27.73c-5.4-.65-8.09-.75-13.49-.26V8.1h24.09c.26,0,.75.02,1.47.08.72.05,1.5.13,2.31.24.82.11,1.52.28,2.1.49.58.21.87.5.87.86v21.02c-5.39-1-8.09-1.65-13.49-2.51V11.44h-3.85v16.29Z" style="fill: #fff; stroke-width: 0px;"/>
      <path d="M153.7,8.1h13.49v24.55c-5.39,0-8.09-.42-13.49-1.34V8.1ZM167.24,5.65h-13.49V1.67c0-.36.29-.65.87-.86.58-.21,1.27-.38,2.1-.49.82-.11,1.59-.2,2.31-.24.73-.05,1.22-.08,1.47-.08h6.74v5.65Z" style="fill: #fff; stroke-width: 0px;"/>
      <path d="M87.44,52.57v1.92h-11c-.16,0-.44-.02-.86-.04-.42-.03-.85-.08-1.32-.14-.47-.06-.87-.16-1.21-.29-.34-.13-.51-.29-.51-.49v-16.28c0-.2.17-.36.51-.49.34-.13.74-.23,1.21-.29.47-.06.9-.11,1.32-.14.42-.03.7-.04.86-.04h11v1.92h-7.11v14.36h7.11v-.02Z" style="fill: #fff; stroke-width: 0px;"/>
      <path d="M104.52,54.49h-11.57c-.16,0-.44-.02-.86-.04-.42-.03-.85-.08-1.32-.14-.47-.06-.87-.16-1.21-.29-.34-.13-.51-.29-.51-.49v-16.28c0-.2.17-.36.51-.49.34-.13.74-.23,1.21-.29.47-.06.9-.11,1.32-.14.41-.03.7-.04.86-.04,4.63,0,6.94.09,11.57-.28.16-.02.44-.02.86-.03.42,0,.85,0,1.32.02.47.02.87.08,1.21.18.34.11.51.26.51.5v16.86c0,.2-.17.36-.51.49-.34.13-.74.23-1.21.29-.47.07-.9.11-1.32.14-.42.03-.7.04-.86.04v-.02ZM96.84,52.57h3.79v-14.4c-1.51.04-2.28.04-3.79.04v14.36Z" style="fill: #fff; stroke-width: 0px;"/>
      <path d="M117.81,54.49h-7.79v-17.96c0-.23.17-.44.51-.61.34-.17.74-.32,1.21-.44.47-.11.9-.21,1.32-.28.41-.07.7-.11.86-.13,4.3-.44,6.45-.66,10.74-.6v2.61c-2.74-.03-4.11.03-6.85.16v7.37h6.55v1.92h-6.55v7.96h0Z" style="fill: #fff; stroke-width: 0px;"/>
      <path d="M133.79,54.49h-7.79v-18.81c0-.28.17-.48.51-.63.34-.14.74-.23,1.21-.28s.9-.07,1.32-.07.7,0,.86.02c4.3.33,6.45.66,10.74,1.07v2.1c-2.74-.16-4.1-.26-6.85-.43v7.14h6.55v1.92h-6.55v7.96Z" style="fill: #fff; stroke-width: 0px;"/>
      <path d="M157.41,44.36v1.92h-7.65v6.29h7.92v1.92h-11.81c-.16,0-.45-.02-.86-.04-.41-.03-.85-.08-1.32-.14-.47-.06-.87-.16-1.21-.29-.34-.13-.51-.29-.51-.49v-16.62c0-.22.17-.38.51-.48.34-.11.74-.17,1.21-.2.47-.03.9-.05,1.32-.05s.7,0,.86,0c4.73.24,7.08.09,11.81.09v1.92h-7.92v6.15h7.65Z" style="fill: #fff; stroke-width: 0px;"/>
      <path d="M174.73,44.36v1.92h-7.65v6.29h7.92v1.92h-11.81c-.16,0-.45-.02-.86-.04-.42-.03-.85-.08-1.32-.14-.47-.06-.87-.16-1.21-.29-.34-.13-.51-.29-.51-.49v-16.28c0-.2.17-.36.51-.49.34-.13.74-.23,1.21-.29.47-.06.9-.11,1.32-.14.41-.03.7-.04.86-.04h11.81v1.92h-7.92v6.15h7.65v-.02Z" style="fill: #fff; stroke-width: 0px;"/>
      <path d="M32.58,33.79c-5.61,2.2-11.75,4.73-18.37,5.28-3.14.34-6.8.09-9.84-.46-1.48-.18-3.3-.8-4.29-.63-.35.26.52.89.71,1.15,1.79,1.72,5.27,4.46,10.37,5.81,9.77,2.7,16.65-.26,25.36-3.51,3.88-1.29,8.2-2.37,12.34-2.79,3.63-.42,7.58-.09,9.65.11.6.02,2.24.31,1.68-.29-2.22-1.65-4.68-2.9-7.57-3.93-8.91-3.19-14.24-2.64-19.96-.73l-.07.02v-.02Z" style="fill: #969e4d; stroke-width: 0px;"/>
      <path d="M39.98,42.93c-5.61,2.2-11.75,4.73-18.37,5.28-3.14.34-6.8.09-9.84-.46-1.48-.18-3.3-.8-4.29-.63-.35.26.52.89.71,1.15,1.79,1.72,5.27,4.46,10.37,5.81,9.77,2.7,16.65-.26,25.36-3.51,3.88-1.29,8.2-2.37,12.34-2.79,3.63-.42,7.58-.09,9.65.11.6.02,2.24.31,1.68-.29-2.22-1.65-4.68-2.9-7.57-3.93-8.91-3.19-14.24-2.64-19.96-.73l-.07.02v-.02Z" style="fill: #969e4d; stroke-width: 0px;"/>
    </g>
  </g>
</svg>